<svg width="32" height="32" viewBox="0 0 46 46" fill="none" xmlns="http://www.w3.org/2000/svg">
<g clip-path="url(#clip0_60_364)">
<path d="M45.8572 36.7144H36.8145V45.857H45.8572V36.7144Z" fill="#154241"/>
<path d="M22.9421 27.4646C22.5597 29.5133 21.5269 33.4846 18.4133 37.3755C14.7416 41.9652 10.2584 43.8412 8.29296 44.528C4.93607 45.7013 1.98638 45.8333 0.143066 45.7767C0.146046 42.7732 0.149025 39.7696 0.152005 36.7661C1.1253 36.8296 2.55248 36.8187 4.20212 36.4117C4.97679 36.2211 7.79439 35.4519 10.3836 32.9466C12.493 30.9059 13.4485 28.6825 13.8716 27.4616C9.29705 27.4616 4.72155 27.4616 0.147039 27.4616C0.147039 24.4581 0.147039 21.4535 0.148032 18.45C4.72751 18.452 9.30598 18.4539 13.8855 18.4559C14.1427 17.0455 14.6333 15.1129 15.6374 12.9799C16.1658 11.8573 18.0518 8.09538 21.9956 4.97073C27.9188 0.280791 34.579 0.118008 36.6845 0.150763C39.7305 0.147785 42.7766 0.1458 45.8226 0.142822C45.8246 3.17913 45.8266 6.21543 45.8285 9.25173C41.9453 9.0681 38.9042 9.14156 36.7858 9.25173C35.8224 9.30235 35.2762 9.34801 34.6436 9.43734C33.13 9.65075 30.2349 10.0587 27.7073 11.7788C24.6394 13.8672 23.4019 17.0127 22.9431 18.4559C30.5696 18.4539 38.1961 18.453 45.8226 18.451C45.8226 21.4565 45.8246 24.462 45.8246 27.4676C38.1971 27.4676 30.5686 27.4666 22.9411 27.4656L22.9421 27.4646Z" fill="#154241"/>
</g>
<defs>
<clipPath id="clip0_60_364">
<rect width="45.7143" height="45.7143" fill="white" transform="translate(0.143066 0.142822)"/>
</clipPath>
</defs>
</svg>
